<?xml version="1.0" encoding="utf-8"?>
<!-- Generator: Adobe Illustrator 24.0.0, SVG Export Plug-In . SVG Version: 6.00 Build 0)  -->
<svg version="1.1" id="Layer_1" xmlns="http://www.w3.org/2000/svg" xmlns:xlink="http://www.w3.org/1999/xlink" x="0px" y="0px"
	 viewBox="0 0 1000 1000" style="enable-background:new 0 0 1000 1000;" xml:space="preserve">
<style type="text/css">
	.st0{fill:none;stroke:#F41616;stroke-miterlimit:10;}
	.st1{fill:none;}
	.st2{fill:none;stroke:#F41616;stroke-linecap:round;stroke-linejoin:round;stroke-miterlimit:10;}
	.st3{clip-path:url(#SVGID_6_);}
	.st4{fill:#FF9AC4;}
	.st5{clip-path:url(#SVGID_7_);}
	.st6{clip-path:url(#SVGID_8_);}
	.st7{fill:url(#SVGID_9_);}
	.st8{fill:url(#SVGID_10_);}
	.st9{fill:url(#SVGID_11_);}
	.st10{clip-path:url(#SVGID_13_);}
	.st11{fill:#B8A9C4;}
	.st12{clip-path:url(#SVGID_14_);}
	.st13{clip-path:url(#SVGID_15_);}
	.st14{fill:url(#SVGID_16_);}
	.st15{fill:#D9F7D1;}
	.st16{fill:url(#SVGID_17_);}
	.st17{fill:url(#SVGID_18_);}
	.st18{fill:url(#SVGID_19_);}
	.st19{fill:url(#SVGID_20_);}
	.st20{fill:url(#SVGID_21_);}
	.st21{fill:url(#SVGID_22_);}
	.st22{fill:url(#SVGID_23_);}
	.st23{fill:url(#SVGID_24_);}
	.st24{fill:url(#SVGID_25_);}
	.st25{fill:url(#SVGID_26_);}
	.st26{fill:url(#SVGID_27_);}
	.st27{fill:url(#SVGID_28_);}
	.st28{fill:url(#SVGID_29_);}
	.st29{fill:url(#SVGID_30_);}
	.st30{fill:url(#SVGID_31_);}
	.st31{fill:url(#SVGID_32_);}
	.st32{fill:url(#SVGID_33_);}
	.st33{fill:none;stroke:url(#SVGID_34_);stroke-miterlimit:10;}
	.st34{fill:none;stroke:url(#SVGID_35_);stroke-miterlimit:10;}
	.st35{fill:none;stroke:url(#SVGID_36_);stroke-miterlimit:10;}
	.st36{fill:none;stroke:url(#SVGID_37_);stroke-miterlimit:10;}
	.st37{fill:none;stroke:url(#SVGID_38_);stroke-miterlimit:10;}
	.st38{fill:url(#SVGID_39_);}
	.st39{fill:url(#SVGID_40_);}
	.st40{fill:url(#SVGID_41_);}
	.st41{fill:url(#SVGID_42_);}
	.st42{fill:url(#SVGID_43_);}
	.st43{fill:url(#SVGID_44_);}
	.st44{fill:url(#SVGID_45_);}
	.st45{fill:url(#SVGID_46_);}
	.st46{fill:url(#SVGID_47_);}
	.st47{fill:url(#SVGID_48_);}
	.st48{fill:url(#SVGID_49_);}
	.st49{fill:url(#SVGID_50_);}
	.st50{fill:url(#SVGID_51_);}
	.st51{fill:url(#SVGID_52_);}
	.st52{fill:url(#SVGID_53_);}
	.st53{fill:url(#SVGID_54_);}
	.st54{fill:url(#SVGID_55_);}
	.st55{fill:url(#SVGID_56_);}
	.st56{fill:url(#SVGID_57_);}
	.st57{fill:url(#SVGID_58_);}
	.st58{fill:url(#SVGID_59_);}
	.st59{fill:url(#SVGID_60_);}
	.st60{fill:url(#SVGID_61_);}
	.st61{fill:url(#SVGID_62_);}
	.st62{fill:url(#SVGID_63_);}
	.st63{fill:url(#SVGID_64_);}
	.st64{fill:url(#SVGID_65_);}
	.st65{fill:url(#SVGID_66_);}
	.st66{fill:url(#SVGID_67_);}
	.st67{fill:url(#SVGID_68_);}
	.st68{fill:url(#SVGID_69_);}
	.st69{fill:url(#SVGID_70_);}
	.st70{fill:url(#SVGID_71_);}
	.st71{fill:url(#SVGID_72_);}
	.st72{fill:url(#SVGID_73_);}
	.st73{fill:url(#SVGID_74_);}
	.st74{fill:url(#SVGID_75_);}
	.st75{fill:url(#SVGID_76_);}
	.st76{fill:url(#SVGID_77_);}
	.st77{fill:url(#SVGID_78_);}
	.st78{fill:url(#SVGID_79_);}
	.st79{fill:url(#SVGID_80_);}
	.st80{fill:url(#SVGID_81_);}
	.st81{fill:url(#SVGID_82_);}
	.st82{fill:url(#SVGID_83_);}
	.st83{fill:url(#SVGID_84_);}
	.st84{fill:none;stroke:url(#SVGID_85_);stroke-miterlimit:10;}
	.st85{fill:url(#SVGID_86_);}
	.st86{fill:url(#SVGID_87_);}
	.st87{fill:url(#SVGID_88_);}
	.st88{fill:url(#SVGID_89_);}
	.st89{fill:url(#SVGID_90_);}
	.st90{fill:url(#SVGID_91_);}
	.st91{fill:url(#SVGID_92_);}
	.st92{fill:url(#SVGID_93_);}
	.st93{fill:url(#SVGID_94_);}
	.st94{fill:url(#SVGID_95_);}
	.st95{fill:url(#SVGID_96_);}
	.st96{fill:url(#SVGID_97_);}
	.st97{fill:url(#SVGID_98_);}
	.st98{fill:url(#SVGID_99_);}
	.st99{fill:url(#SVGID_100_);}
	.st100{fill:url(#SVGID_101_);}
	.st101{fill:url(#SVGID_102_);}
	.st102{fill:url(#SVGID_103_);}
	.st103{fill:url(#SVGID_104_);}
	.st104{fill:url(#SVGID_105_);}
	.st105{fill:url(#SVGID_106_);}
	.st106{fill:url(#SVGID_107_);}
	.st107{fill:url(#SVGID_108_);}
	.st108{fill:url(#SVGID_109_);}
	.st109{fill:url(#SVGID_110_);}
	.st110{fill:url(#SVGID_111_);}
	.st111{fill:url(#SVGID_112_);}
	.st112{fill:url(#SVGID_113_);}
	.st113{fill:url(#SVGID_114_);}
	.st114{fill:url(#SVGID_115_);}
	.st115{fill:url(#SVGID_116_);}
	.st116{fill:url(#SVGID_117_);}
	.st117{fill:url(#SVGID_118_);}
	.st118{fill:url(#SVGID_119_);}
	.st119{fill:url(#SVGID_120_);}
	.st120{fill:url(#SVGID_121_);}
	.st121{fill:url(#SVGID_122_);}
	.st122{fill:url(#SVGID_123_);}
	.st123{fill:url(#SVGID_124_);}
	.st124{fill:url(#SVGID_125_);}
	.st125{fill:url(#SVGID_126_);}
	.st126{fill:url(#SVGID_127_);}
	.st127{fill:url(#SVGID_128_);}
	.st128{fill:url(#SVGID_129_);}
	.st129{fill:url(#SVGID_130_);}
	.st130{fill:url(#SVGID_131_);}
	.st131{fill:url(#SVGID_132_);}
	.st132{fill:url(#SVGID_133_);}
	.st133{fill:url(#SVGID_134_);}
	.st134{fill:url(#SVGID_135_);}
	.st135{fill:url(#SVGID_136_);}
	.st136{fill:url(#SVGID_137_);}
	.st137{fill:url(#SVGID_138_);}
	.st138{fill:url(#SVGID_139_);}
	.st139{fill:url(#SVGID_140_);}
	.st140{fill:url(#SVGID_141_);}
	.st141{fill:url(#SVGID_142_);}
	.st142{fill:url(#SVGID_143_);}
	.st143{fill:url(#SVGID_144_);}
	.st144{fill:url(#SVGID_145_);}
	.st145{fill:url(#SVGID_146_);}
	.st146{fill:url(#SVGID_147_);}
	.st147{fill:url(#SVGID_148_);}
	.st148{fill:url(#SVGID_149_);}
	.st149{fill:url(#SVGID_150_);}
	.st150{fill:url(#SVGID_151_);}
	.st151{fill:url(#SVGID_152_);}
	.st152{fill:url(#SVGID_153_);}
	.st153{fill:url(#SVGID_154_);}
	.st154{fill:url(#SVGID_155_);}
	.st155{fill:url(#SVGID_156_);}
	.st156{fill:url(#SVGID_157_);}
	.st157{fill:url(#SVGID_158_);}
	.st158{fill:url(#SVGID_159_);}
	.st159{fill:url(#SVGID_160_);}
	.st160{fill:url(#SVGID_161_);}
	.st161{fill:url(#SVGID_162_);}
	.st162{fill:url(#SVGID_163_);}
	.st163{fill:url(#SVGID_164_);}
	.st164{fill:url(#SVGID_165_);}
	.st165{fill:url(#SVGID_166_);}
	.st166{fill:url(#SVGID_167_);}
	.st167{fill:url(#SVGID_168_);}
	.st168{fill:url(#SVGID_169_);}
	.st169{fill:url(#SVGID_170_);}
	.st170{fill:url(#SVGID_171_);}
	.st171{fill:url(#SVGID_172_);}
	.st172{fill:url(#SVGID_173_);}
	.st173{fill:url(#SVGID_174_);}
	.st174{fill:url(#SVGID_175_);}
	.st175{fill:url(#SVGID_176_);}
	.st176{fill:url(#SVGID_177_);}
	.st177{fill:url(#SVGID_178_);}
	.st178{fill:url(#SVGID_179_);}
	.st179{fill:url(#SVGID_180_);}
	.st180{fill:url(#SVGID_181_);}
	.st181{fill:url(#SVGID_182_);}
	.st182{fill:url(#SVGID_183_);}
	.st183{fill:url(#SVGID_184_);}
	.st184{fill:url(#SVGID_185_);}
	.st185{fill:url(#SVGID_186_);}
</style>
<g>
	<linearGradient id="SVGID_6_" gradientUnits="userSpaceOnUse" x1="500" y1="-128.956" x2="500" y2="1205.7061">
		<stop  offset="0" style="stop-color:#D45E31"/>
		<stop  offset="1" style="stop-color:#D998D1"/>
	</linearGradient>
	<rect style="fill:url(#SVGID_6_);" width="1000" height="1000"/>
	<linearGradient id="SVGID_7_" gradientUnits="userSpaceOnUse" x1="335.3768" y1="677.5615" x2="422.4098" y2="565.2098">
		<stop  offset="0" style="stop-color:#D4C8C1;stop-opacity:0"/>
		<stop  offset="0.9604" style="stop-color:#D7BFDC"/>
	</linearGradient>
	<path style="fill:url(#SVGID_7_);" d="M360.99,621.99v41.18c0.69-23.28,19.69-41.94,43.04-41.94c0.03,0,0.05,0,0.08,0v-30.52
		c-2.3-0.41-4.68-0.63-7.12-0.63C377.11,590.09,360.99,604.37,360.99,621.99z"/>
	<linearGradient id="SVGID_8_" gradientUnits="userSpaceOnUse" x1="680.0466" y1="490.7731" x2="366.7279" y2="520.4434">
		<stop  offset="0" style="stop-color:#D4C8C1;stop-opacity:0"/>
		<stop  offset="0.9604" style="stop-color:#D7BFDC"/>
	</linearGradient>
	<path style="fill:url(#SVGID_8_);" d="M633.05,381.24c14.88,21.55,23.59,47.68,23.59,75.85c0,73.85-59.87,133.71-133.71,133.71
		c-40.72,0-68.11-3.77-92.64-32.47l-33.43-2.97c13.67,24.66,25.14,32.2,50.04,45.49l0.2,20.77l37.05-0.89l-3.38-6.65
		c12.33,3.38,25.32,5.2,38.73,5.2c80.69,0,146.11-65.42,146.11-146.11C665.61,438.34,653.4,406.35,633.05,381.24z"/>
	<linearGradient id="SVGID_9_" gradientUnits="userSpaceOnUse" x1="424.0071" y1="466.427" x2="537.9412" y2="384.9325">
		<stop  offset="0" style="stop-color:#D4C8C1;stop-opacity:0"/>
		<stop  offset="0.9604" style="stop-color:#D7BFDC"/>
	</linearGradient>
	<rect x="447.63" y="395.77" class="st7" width="87.82" height="44.7"/>
	<linearGradient id="SVGID_10_" gradientUnits="userSpaceOnUse" x1="403.4376" y1="593.5715" x2="403.4376" y2="669.7913">
		<stop  offset="0" style="stop-color:#D4C8C1"/>
		<stop  offset="0.5562" style="stop-color:#D9F7D1"/>
		<stop  offset="1" style="stop-color:#D4BD97"/>
	</linearGradient>
	<path class="st8" d="M404.11,593.57h-1.35c0.45,0,0.9,0.02,1.35,0.03V593.57z"/>
	<linearGradient id="SVGID_11_" gradientUnits="userSpaceOnUse" x1="500" y1="289.4176" x2="500" y2="710.5824">
		<stop  offset="0" style="stop-color:#E2C6CD"/>
		<stop  offset="0.1115" style="stop-color:#D5CECD"/>
		<stop  offset="0.3171" style="stop-color:#B3E5CC"/>
		<stop  offset="0.5239" style="stop-color:#8BFFCC"/>
		<stop  offset="0.7298" style="stop-color:#BCDEB2"/>
		<stop  offset="0.9061" style="stop-color:#E0C69E"/>
		<stop  offset="1" style="stop-color:#EEBD97"/>
	</linearGradient>
	<path class="st9" d="M603.5,569.67c39.44-24.83,65.8-68.77,65.8-118.56c0,0,0-20.66,0-20.66c0-22.41-5.47-44.68-15.86-64.53
		c-10.12-19.33-24.78-36.22-42.46-49c-17.96-12.98-38.95-21.62-60.87-24.92c-15.63-2.35-46.96-2.39-46.96-2.39l-49.7-0.2
		l-12.56,0.05c0,0-6.71-0.05-10.09-0.05c-7.68,0-15.31,0-22.99,0c-17.89,0-76.46,0.24-87.87,0.24c-0.46,0-0.93,0-1.39,0v127.52
		v47.19v72.08c0,0,5.42-5.76,6.66-6.89c2.46-2.24,5.07-4.3,7.82-6.18c5.64-3.85,11.8-6.89,18.2-9.24
		c14.79-5.44,29.42-3.78,44.88-3.78c25.53,0,51.06,0,76.59,0c14.39,0,28.79,0,43.18,0c34.73-3.11,61.98-32.59,61.98-68.54
		c0-37.29-29.32-67.63-65.9-68.78v0.16h-7.17c-0.1,0.01-0.21,0.01-0.31,0.02H435.3c0.02-0.02-30.68-0.02-30.68-0.02v87.65h-41.07
		V373.2v-35.67c0,0,40.79,0,41.07,0c32.92,0,65.83-0.06,98.75-0.13c25.32-0.05,48.17,2.13,70.31,15.6
		c31.18,18.96,51.11,53.26,51.11,89.88c0,58.41-48.41,105.76-108.13,105.76c-1.09,0-2.18-0.02-3.27-0.05c-1.94,0-3.88,0-5.81,0
		c-21.25,0-42.5,0-63.76,0c-12.25,0-24.5,0-36.75,0c-13.46,0-26.16-1.42-39.09,3.26c-11.68,4.23-22.31,11.47-30.33,20.98
		c-4.3,5.1-7.84,10.79-10.83,16.75c-1.67,3.32-3.16,6.73-4.52,10.18c-2.32,5.88-3.64,11.09-3.69,17.43c-0.03,3.21,0,6.43-0.01,9.64
		c-0.01,8.77-0.01,17.54-0.02,26.3c-0.01,16.8-0.03,33.59-0.04,50.39c0,2.35,0,4.71-0.01,7.06h129.76V590.77
		c3.18,0.22,6.38,0.34,9.6,0.34h10.98l59.32,118.95l153.23,0.26L603.5,569.67z M449.08,417.66h62.24v0.13
		c12.8,0.01,23.18,10.59,23.18,23.64c0,13.05-10.38,23.63-23.18,23.64v0.07h-62.24V417.66z M404.25,657.11v12.16h-42.73v-44.18
		c0-17.7,18.52-32.04,41.37-32.04c0.45,0,0.9,0.02,1.35,0.03V657.11z M518.05,591.73c18.33-0.35,36.59-1.71,44.51-4.35l41.74,80.31
		l-46.88,0.4L518.05,591.73z"/>
</g>
</svg>
